<svg xmlns="http://www.w3.org/2000/svg" width="41" height="57" fill="none" viewBox="0 0 41 57">
    <path fill="#000" fill-opacity=".58" d="M20.95 5.108c.621 0 1.125-.503 1.125-1.124 0-.621-.504-1.125-1.125-1.125s-1.124.504-1.124 1.125c0 .62.503 1.124 1.124 1.124zM23.987 4.819h4.386c.46 0 .834-.374.834-.835 0-.461-.373-.835-.835-.835h-4.385c-.462 0-.835.374-.835.835 0 .461.373.835.835.835zM6.78 16.42c-.461 0-.835.373-.835.834v8.997c0 1.7 1.384 3.084 3.084 3.084h2.25c1.7 0 3.084-1.384 3.084-3.084v-8.997c0-.46-.374-.835-.835-.835-.462 0-.835.374-.835.835v8.997c0 .78-.634 1.414-1.414 1.414h-2.25c-.78 0-1.414-.634-1.414-1.414v-8.997c0-.46-.374-.835-.835-.835zM17.597 29.216c.134.08.282.12.428.12.284 0 .56-.145.717-.406L21.4 24.5l2.658 4.43c.156.26.433.405.716.405.147 0 .295-.038.43-.119.395-.237.523-.75.286-1.146l-3.116-5.193 3.116-5.193c.237-.396.109-.909-.287-1.146-.395-.237-.908-.109-1.145.287l-2.658 4.43-2.658-4.43c-.237-.396-.75-.524-1.145-.287-.396.237-.524.75-.287 1.146l3.116 5.193-3.116 5.193c-.237.396-.109.909.287 1.146zM13.528 41.723c-.462 0-.835.373-.835.834v4.499c0 .461.373.835.835.835h4.498c.461 0 .835-.374.835-.835v-4.498c0-.462-.374-.835-.835-.835h-4.498zm3.663 4.498h-2.828v-2.828h2.828v2.828zM26.348 41.723H21.85c-.462 0-.835.373-.835.834v4.499c0 .461.373.835.835.835h4.498c.461 0 .835-.374.835-.835v-4.498c0-.462-.374-.835-.835-.835zm-.835 4.498h-2.828v-2.828h2.828v2.828zM30.172 41.723c-.462 0-.835.373-.835.834v4.499c0 .461.373.835.835.835h4.498c.461 0 .835-.374.835-.835v-4.498c0-.462-.374-.835-.835-.835h-4.498zm3.663 4.498h-2.828v-2.828h2.828v2.828z"/>
    <path fill="#000" fill-opacity=".58" d="M40.678 52.791c0-.084-.012-.166-.036-.243V17.321c0-.461-.374-.835-.835-.835-.461 0-.835.374-.835.835v34.635H9.153V40.71c0-.461-.373-.835-.835-.835-.46 0-.834.374-.834.835v15.456c0 .461.373.835.834.835h31.49c.46 0 .834-.374.834-.835v-3.13c.023-.078.036-.16.036-.244zM9.153 55.33v-1.704h29.82v1.704H9.152z"/>
    <path fill="#000" fill-opacity=".58" d="M7.484 36.787c0 .461.374.835.835.835.461 0 .835-.374.835-.835V32.71h11.9l5.379 5.378c.16.16.373.245.59.245.108 0 .216-.021.32-.064.312-.129.515-.434.515-.771v-4.788h.29c1.7 0 3.084-1.384 3.084-3.084V16.129c0-1.7-1.384-3.084-3.084-3.084H17.773c-.462 0-.835.374-.835.835 0 .461.373.835.835.835h10.375c.78 0 1.414.635 1.414 1.414v13.495c0 .78-.635 1.415-1.415 1.415h-1.124c-.461 0-.835.374-.835.835v3.607l-4.198-4.198c-.156-.156-.368-.244-.59-.244H3.406c-.78 0-1.414-.635-1.414-1.415V16.13c0-.78.635-1.414 1.414-1.414h10.48c.46 0 .834-.374.834-.835 0-.461-.373-.835-.835-.835H9.155V5.044h6.438l.814 1.79c.5 1.099 1.601 1.808 2.808 1.808h9.698c1.206 0 2.308-.71 2.808-1.807l.814-1.791h6.438v8.368c0 .46.374.835.835.835.461 0 .835-.374.835-.835V.835c0-.461-.374-.835-.835-.835H8.319c-.461 0-.835.374-.835.835v12.21H3.406c-1.7 0-3.084 1.384-3.084 3.085v13.495c0 1.7 1.384 3.084 3.084 3.084h4.078v4.078zM38.972 1.67v1.704h-6.976c-.327 0-.624.191-.76.49l-1.037 2.28c-.229.503-.734.828-1.287.828h-9.698c-.553 0-1.059-.325-1.288-.829l-1.036-2.28c-.136-.298-.433-.49-.76-.49H9.154V1.67h29.818z"/>
</svg>
