<svg xmlns="http://www.w3.org/2000/svg" width="52" height="48" fill="none" viewBox="0 0 52 48">
    <mask id="dgpu2y28ua" fill="#fff">
        <path d="M52 12.752v-2.97c0-.123-.022-.244-.065-.358L48.888 1.3c-.148-.396-.527-.659-.95-.659H4.062c-.424 0-.803.263-.951.66L.065 9.424C.022 9.539 0 9.659 0 9.78v2.97c0 1.754 1.097 3.256 2.64 3.857v19.58c0 1.68 1.367 3.047 3.047 3.047H20.25l-.74 6.094h-3.157c-.561 0-1.016.454-1.016 1.015 0 .561.455 1.016 1.016 1.016h18.28c.562 0 1.016-.455 1.016-1.016 0-.56-.454-1.015-1.015-1.015h-3.158l-.74-6.094h10.577l.496 1.343c.181.587.628 1.025 1.203 1.175.585.153 1.214-.018 1.642-.445l.749-.75 1.727 1.728c.323.322.751.5 1.207.5.456 0 .885-.178 1.208-.5L51.5 40.33c.665-.666.665-1.75 0-2.415l-1.727-1.727.748-.749c.42-.42.59-1.017.453-1.598-.136-.574-.548-1.029-1.104-1.22l-.51-.189V16.608c1.543-.601 2.64-2.103 2.64-3.856zm-2.031-2.787v2.787c0 1.162-.946 2.107-2.108 2.107-1.162 0-2.107-.945-2.107-2.107v-2.97c0-.094-.013-.186-.038-.276l-1.922-6.835h3.44l2.735 7.294zM8.277 9.921l2.04-7.25h3.49L12.51 9.594c-.012.062-.018.125-.018.187v2.97c0 1.163-.945 2.108-2.107 2.108-1.162 0-2.108-.945-2.108-2.107v-2.83zm6.246-.045l1.351-7.205H19.4l-.657 7.015c-.003.032-.005.063-.005.095v2.97c0 1.163-.945 2.108-2.107 2.108-1.162 0-2.108-.945-2.108-2.107V9.876zm6.247-.047l.67-7.158h3.544v10.08c0 1.163-.945 2.108-2.107 2.108-1.162 0-2.107-.945-2.107-2.107V9.829zm6.246-7.158h3.543l.671 7.158v2.923c0 1.162-.945 2.107-2.107 2.107-1.162 0-2.107-.945-2.107-2.107V2.672zm6.241 7.015L32.6 2.671h3.526l1.35 7.205v2.876c0 1.162-.945 2.107-2.107 2.107-1.162 0-2.107-.945-2.107-2.107v-2.97c0-.033-.002-.064-.005-.096zm6.233-.092l-1.297-6.923h3.49l2.04 7.25v2.83c0 1.163-.946 2.108-2.108 2.108-1.162 0-2.107-.945-2.107-2.107v-2.97c0-.064-.006-.126-.018-.188zm-37.459.371l2.735-7.294h3.44L6.284 9.506c-.025.09-.038.182-.038.275v2.97c0 1.163-.945 2.108-2.107 2.108-1.162 0-2.108-.945-2.108-2.107V9.965zM29.43 45.33h-7.873l.74-6.094h6.393l.74 6.094zm20.406-6.206l-1.499 1.498-2.216-2.217c-.198-.198-.458-.297-.718-.297-.26 0-.52.099-.718.297l-1.105 1.105-3.008-8.153 8.154 3.007-1.107 1.107c-.19.19-.297.448-.297.718 0 .27.107.527.297.718l2.217 2.217zm-9.245-9.924l-.025-.01c-.616-.208-1.286-.053-1.748.407-.462.459-.622 1.127-.417 1.744l.01.031.654 1.77h-9.002c-.56 0-1.016.455-1.016 1.016 0 .56.455 1.015 1.016 1.015h9.751l.75 2.031H5.687c-.56 0-1.015-.455-1.015-1.015v-1.016h16.25c.56 0 1.015-.455 1.015-1.015 0-.561-.455-1.016-1.015-1.016H4.672V16.855c1.029-.133 1.94-.644 2.59-1.39.76.872 1.878 1.425 3.123 1.425 1.245 0 2.363-.553 3.123-1.426.76.873 1.878 1.426 3.123 1.426 1.245 0 2.363-.553 3.123-1.426.76.873 1.878 1.426 3.123 1.426 1.245 0 2.364-.553 3.123-1.426.76.873 1.878 1.426 3.123 1.426 1.245 0 2.364-.553 3.123-1.426.76.873 1.878 1.426 3.123 1.426 1.245 0 2.364-.553 3.123-1.426.76.873 1.878 1.426 3.123 1.426 1.245 0 2.364-.553 3.123-1.426.65.747 1.561 1.258 2.59 1.39v14.83l-6.738-2.485z"/>
        <path d="M27.523 19.937c-.56 0-1.015.455-1.015 1.016v6.094c0 .56-.456 1.015-1.016 1.015s-1.015-.455-1.015-1.015v-6.094c0-.56-.455-1.016-1.016-1.016-.561 0-1.016.455-1.016 1.016v6.094c0 1.68 1.367 3.047 3.047 3.047 1.68 0 3.047-1.367 3.047-3.047v-6.094c0-.56-.455-1.016-1.016-1.016zM17.875 19.937h-2.031c-.561 0-1.016.455-1.016 1.016v8.125c0 .56.455 1.016 1.016 1.016h2.03c1.68 0 3.048-1.367 3.048-3.047 0-.78-.295-1.492-.778-2.032.483-.539.778-1.251.778-2.03 0-1.68-1.367-3.048-3.047-3.048zm0 2.032c.56 0 1.015.455 1.015 1.015 0 .56-.455 1.016-1.015 1.016h-1.016v-2.031h1.016zm0 6.093h-1.016v-2.03h1.016c.56 0 1.015.455 1.015 1.015 0 .56-.455 1.015-1.015 1.015zM35.14 19.937c-.56 0-1.015.455-1.015 1.016v2.907c0 .56-.456 1.016-1.016 1.016s-1.015-.456-1.015-1.016v-2.907c0-.56-.455-1.016-1.016-1.016-.56 0-1.015.455-1.015 1.016v2.907c0 1.324.849 2.453 2.03 2.872v2.346c0 .561.456 1.016 1.016 1.016.561 0 1.016-.455 1.016-1.016v-2.346c1.182-.419 2.031-1.548 2.031-2.872v-2.907c0-.56-.454-1.016-1.015-1.016zM25.492 33.141c-.56 0-1.016.455-1.016 1.016 0 .56.455 1.015 1.016 1.015.561 0 1.016-.454 1.016-1.015 0-.561-.455-1.016-1.016-1.016z"/>
    </mask>
    <path fill="#000" fill-opacity=".58" d="M52 12.752v-2.97c0-.123-.022-.244-.065-.358L48.888 1.3c-.148-.396-.527-.659-.95-.659H4.062c-.424 0-.803.263-.951.66L.065 9.424C.022 9.539 0 9.659 0 9.78v2.97c0 1.754 1.097 3.256 2.64 3.857v19.58c0 1.68 1.367 3.047 3.047 3.047H20.25l-.74 6.094h-3.157c-.561 0-1.016.454-1.016 1.015 0 .561.455 1.016 1.016 1.016h18.28c.562 0 1.016-.455 1.016-1.016 0-.56-.454-1.015-1.015-1.015h-3.158l-.74-6.094h10.577l.496 1.343c.181.587.628 1.025 1.203 1.175.585.153 1.214-.018 1.642-.445l.749-.75 1.727 1.728c.323.322.751.5 1.207.5.456 0 .885-.178 1.208-.5L51.5 40.33c.665-.666.665-1.75 0-2.415l-1.727-1.727.748-.749c.42-.42.59-1.017.453-1.598-.136-.574-.548-1.029-1.104-1.22l-.51-.189V16.608c1.543-.601 2.64-2.103 2.64-3.856zm-2.031-2.787v2.787c0 1.162-.946 2.107-2.108 2.107-1.162 0-2.107-.945-2.107-2.107v-2.97c0-.094-.013-.186-.038-.276l-1.922-6.835h3.44l2.735 7.294zM8.277 9.921l2.04-7.25h3.49L12.51 9.594c-.012.062-.018.125-.018.187v2.97c0 1.163-.945 2.108-2.107 2.108-1.162 0-2.108-.945-2.108-2.107v-2.83zm6.246-.045l1.351-7.205H19.4l-.657 7.015c-.003.032-.005.063-.005.095v2.97c0 1.163-.945 2.108-2.107 2.108-1.162 0-2.108-.945-2.108-2.107V9.876zm6.247-.047l.67-7.158h3.544v10.08c0 1.163-.945 2.108-2.107 2.108-1.162 0-2.107-.945-2.107-2.107V9.829zm6.246-7.158h3.543l.671 7.158v2.923c0 1.162-.945 2.107-2.107 2.107-1.162 0-2.107-.945-2.107-2.107V2.672zm6.241 7.015L32.6 2.671h3.526l1.35 7.205v2.876c0 1.162-.945 2.107-2.107 2.107-1.162 0-2.107-.945-2.107-2.107v-2.97c0-.033-.002-.064-.005-.096zm6.233-.092l-1.297-6.923h3.49l2.04 7.25v2.83c0 1.163-.946 2.108-2.108 2.108-1.162 0-2.107-.945-2.107-2.107v-2.97c0-.064-.006-.126-.018-.188zm-37.459.371l2.735-7.294h3.44L6.284 9.506c-.025.09-.038.182-.038.275v2.97c0 1.163-.945 2.108-2.107 2.108-1.162 0-2.108-.945-2.108-2.107V9.965zM29.43 45.33h-7.873l.74-6.094h6.393l.74 6.094zm20.406-6.206l-1.499 1.498-2.216-2.217c-.198-.198-.458-.297-.718-.297-.26 0-.52.099-.718.297l-1.105 1.105-3.008-8.153 8.154 3.007-1.107 1.107c-.19.19-.297.448-.297.718 0 .27.107.527.297.718l2.217 2.217zm-9.245-9.924l-.025-.01c-.616-.208-1.286-.053-1.748.407-.462.459-.622 1.127-.417 1.744l.01.031.654 1.77h-9.002c-.56 0-1.016.455-1.016 1.016 0 .56.455 1.015 1.016 1.015h9.751l.75 2.031H5.687c-.56 0-1.015-.455-1.015-1.015v-1.016h16.25c.56 0 1.015-.455 1.015-1.015 0-.561-.455-1.016-1.015-1.016H4.672V16.855c1.029-.133 1.94-.644 2.59-1.39.76.872 1.878 1.425 3.123 1.425 1.245 0 2.363-.553 3.123-1.426.76.873 1.878 1.426 3.123 1.426 1.245 0 2.363-.553 3.123-1.426.76.873 1.878 1.426 3.123 1.426 1.245 0 2.364-.553 3.123-1.426.76.873 1.878 1.426 3.123 1.426 1.245 0 2.364-.553 3.123-1.426.76.873 1.878 1.426 3.123 1.426 1.245 0 2.364-.553 3.123-1.426.76.873 1.878 1.426 3.123 1.426 1.245 0 2.364-.553 3.123-1.426.65.747 1.561 1.258 2.59 1.39v14.83l-6.738-2.485z"/>
    <path fill="#000" fill-opacity=".58" d="M27.523 19.937c-.56 0-1.015.455-1.015 1.016v6.094c0 .56-.456 1.015-1.016 1.015s-1.015-.455-1.015-1.015v-6.094c0-.56-.455-1.016-1.016-1.016-.561 0-1.016.455-1.016 1.016v6.094c0 1.68 1.367 3.047 3.047 3.047 1.68 0 3.047-1.367 3.047-3.047v-6.094c0-.56-.455-1.016-1.016-1.016zM17.875 19.937h-2.031c-.561 0-1.016.455-1.016 1.016v8.125c0 .56.455 1.016 1.016 1.016h2.03c1.68 0 3.048-1.367 3.048-3.047 0-.78-.295-1.492-.778-2.032.483-.539.778-1.251.778-2.03 0-1.68-1.367-3.048-3.047-3.048zm0 2.032c.56 0 1.015.455 1.015 1.015 0 .56-.455 1.016-1.015 1.016h-1.016v-2.031h1.016zm0 6.093h-1.016v-2.03h1.016c.56 0 1.015.455 1.015 1.015 0 .56-.455 1.015-1.015 1.015zM35.14 19.937c-.56 0-1.015.455-1.015 1.016v2.907c0 .56-.456 1.016-1.016 1.016s-1.015-.456-1.015-1.016v-2.907c0-.56-.455-1.016-1.016-1.016-.56 0-1.015.455-1.015 1.016v2.907c0 1.324.849 2.453 2.03 2.872v2.346c0 .561.456 1.016 1.016 1.016.561 0 1.016-.455 1.016-1.016v-2.346c1.182-.419 2.031-1.548 2.031-2.872v-2.907c0-.56-.454-1.016-1.015-1.016zM25.492 33.141c-.56 0-1.016.455-1.016 1.016 0 .56.455 1.015 1.016 1.015.561 0 1.016-.454 1.016-1.015 0-.561-.455-1.016-1.016-1.016z"/>
    <path stroke="#000" stroke-opacity=".58" stroke-width=".2" d="M52 12.752v-2.97c0-.123-.022-.244-.065-.358L48.888 1.3c-.148-.396-.527-.659-.95-.659H4.062c-.424 0-.803.263-.951.66L.065 9.424C.022 9.539 0 9.659 0 9.78v2.97c0 1.754 1.097 3.256 2.64 3.857v19.58c0 1.68 1.367 3.047 3.047 3.047H20.25l-.74 6.094h-3.157c-.561 0-1.016.454-1.016 1.015 0 .561.455 1.016 1.016 1.016h18.28c.562 0 1.016-.455 1.016-1.016 0-.56-.454-1.015-1.015-1.015h-3.158l-.74-6.094h10.577l.496 1.343c.181.587.628 1.025 1.203 1.175.585.153 1.214-.018 1.642-.445l.749-.75 1.727 1.728c.323.322.751.5 1.207.5.456 0 .885-.178 1.208-.5L51.5 40.33c.665-.666.665-1.75 0-2.415l-1.727-1.727.748-.749c.42-.42.59-1.017.453-1.598-.136-.574-.548-1.029-1.104-1.22l-.51-.189V16.608c1.543-.601 2.64-2.103 2.64-3.856zm-2.031-2.787v2.787c0 1.162-.946 2.107-2.108 2.107-1.162 0-2.107-.945-2.107-2.107v-2.97c0-.094-.013-.186-.038-.276l-1.922-6.835h3.44l2.735 7.294zM8.277 9.921l2.04-7.25h3.49L12.51 9.594c-.012.062-.018.125-.018.187v2.97c0 1.163-.945 2.108-2.107 2.108-1.162 0-2.108-.945-2.108-2.107v-2.83zm6.246-.045l1.351-7.205H19.4l-.657 7.015c-.003.032-.005.063-.005.095v2.97c0 1.163-.945 2.108-2.107 2.108-1.162 0-2.108-.945-2.108-2.107V9.876zm6.247-.047l.67-7.158h3.544v10.08c0 1.163-.945 2.108-2.107 2.108-1.162 0-2.107-.945-2.107-2.107V9.829zm6.246-7.158h3.543l.671 7.158v2.923c0 1.162-.945 2.107-2.107 2.107-1.162 0-2.107-.945-2.107-2.107V2.672zm6.241 7.015L32.6 2.671h3.526l1.35 7.205v2.876c0 1.162-.945 2.107-2.107 2.107-1.162 0-2.107-.945-2.107-2.107v-2.97c0-.033-.002-.064-.005-.096zm6.233-.092l-1.297-6.923h3.49l2.04 7.25v2.83c0 1.163-.946 2.108-2.108 2.108-1.162 0-2.107-.945-2.107-2.107v-2.97c0-.064-.006-.126-.018-.188zm-37.459.371l2.735-7.294h3.44L6.284 9.506c-.025.09-.038.182-.038.275v2.97c0 1.163-.945 2.108-2.107 2.108-1.162 0-2.108-.945-2.108-2.107V9.965zM29.43 45.33h-7.873l.74-6.094h6.393l.74 6.094zm20.406-6.206l-1.499 1.498-2.216-2.217c-.198-.198-.458-.297-.718-.297-.26 0-.52.099-.718.297l-1.105 1.105-3.008-8.153 8.154 3.007-1.107 1.107c-.19.19-.297.448-.297.718 0 .27.107.527.297.718l2.217 2.217zm-9.245-9.924l-.025-.01c-.616-.208-1.286-.053-1.748.407-.462.459-.622 1.127-.417 1.744l.01.031.654 1.77h-9.002c-.56 0-1.016.455-1.016 1.016 0 .56.455 1.015 1.016 1.015h9.751l.75 2.031H5.687c-.56 0-1.015-.455-1.015-1.015v-1.016h16.25c.56 0 1.015-.455 1.015-1.015 0-.561-.455-1.016-1.015-1.016H4.672V16.855c1.029-.133 1.94-.644 2.59-1.39.76.872 1.878 1.425 3.123 1.425 1.245 0 2.363-.553 3.123-1.426.76.873 1.878 1.426 3.123 1.426 1.245 0 2.363-.553 3.123-1.426.76.873 1.878 1.426 3.123 1.426 1.245 0 2.364-.553 3.123-1.426.76.873 1.878 1.426 3.123 1.426 1.245 0 2.364-.553 3.123-1.426.76.873 1.878 1.426 3.123 1.426 1.245 0 2.364-.553 3.123-1.426.76.873 1.878 1.426 3.123 1.426 1.245 0 2.364-.553 3.123-1.426.65.747 1.561 1.258 2.59 1.39v14.83l-6.738-2.485z" mask="url(#dgpu2y28ua)"/>
    <path stroke="#000" stroke-opacity=".58" stroke-width=".2" d="M27.523 19.937c-.56 0-1.015.455-1.015 1.016v6.094c0 .56-.456 1.015-1.016 1.015s-1.015-.455-1.015-1.015v-6.094c0-.56-.455-1.016-1.016-1.016-.561 0-1.016.455-1.016 1.016v6.094c0 1.68 1.367 3.047 3.047 3.047 1.68 0 3.047-1.367 3.047-3.047v-6.094c0-.56-.455-1.016-1.016-1.016zM17.875 19.937h-2.031c-.561 0-1.016.455-1.016 1.016v8.125c0 .56.455 1.016 1.016 1.016h2.03c1.68 0 3.048-1.367 3.048-3.047 0-.78-.295-1.492-.778-2.032.483-.539.778-1.251.778-2.03 0-1.68-1.367-3.048-3.047-3.048zm0 2.032c.56 0 1.015.455 1.015 1.015 0 .56-.455 1.016-1.015 1.016h-1.016v-2.031h1.016zm0 6.093h-1.016v-2.03h1.016c.56 0 1.015.455 1.015 1.015 0 .56-.455 1.015-1.015 1.015zM35.14 19.937c-.56 0-1.015.455-1.015 1.016v2.907c0 .56-.456 1.016-1.016 1.016s-1.015-.456-1.015-1.016v-2.907c0-.56-.455-1.016-1.016-1.016-.56 0-1.015.455-1.015 1.016v2.907c0 1.324.849 2.453 2.03 2.872v2.346c0 .561.456 1.016 1.016 1.016.561 0 1.016-.455 1.016-1.016v-2.346c1.182-.419 2.031-1.548 2.031-2.872v-2.907c0-.56-.454-1.016-1.015-1.016zM25.492 33.141c-.56 0-1.016.455-1.016 1.016 0 .56.455 1.015 1.016 1.015.561 0 1.016-.454 1.016-1.015 0-.561-.455-1.016-1.016-1.016z" mask="url(#dgpu2y28ua)"/>
</svg>
