<svg width="451" height="90" viewBox="0 0 451 90" fill="none" xmlns="http://www.w3.org/2000/svg">
<g filter="url(#filter0_i)">
<path d="M49.2617 66.0273C49.2617 62.2773 47.9336 59.3867 45.2773 57.3555C42.6602 55.3242 37.9141 53.2734 31.0391 51.2031C24.1641 49.1328 18.6953 46.8281 14.6328 44.2891C6.85938 39.4062 2.97266 33.0391 2.97266 25.1875C2.97266 18.3125 5.76562 12.6484 11.3516 8.19531C16.9766 3.74219 24.2617 1.51562 33.207 1.51562C39.1445 1.51562 44.4375 2.60938 49.0859 4.79688C53.7344 6.98437 57.3867 10.1094 60.043 14.1719C62.6992 18.1953 64.0273 22.668 64.0273 27.5898H49.2617C49.2617 23.1367 47.8555 19.6602 45.043 17.1602C42.2695 14.6211 38.2852 13.3516 33.0898 13.3516C28.2461 13.3516 24.4766 14.3867 21.7812 16.457C19.125 18.5273 17.7969 21.418 17.7969 25.1289C17.7969 28.2539 19.2422 30.8711 22.1328 32.9805C25.0234 35.0508 29.7891 37.082 36.4297 39.0742C43.0703 41.0273 48.4023 43.2734 52.4258 45.8125C56.4492 48.3125 59.3984 51.2031 61.2734 54.4844C63.1484 57.7266 64.0859 61.5352 64.0859 65.9102C64.0859 73.0195 61.3516 78.6836 55.8828 82.9023C50.4531 87.082 43.0703 89.1719 33.7344 89.1719C27.5625 89.1719 21.8789 88.0391 16.6836 85.7734C11.5273 83.4688 7.50391 80.3047 4.61328 76.2812C1.76172 72.2578 0.335938 67.5703 0.335938 62.2188H15.1602C15.1602 67.0625 16.7617 70.8125 19.9648 73.4688C23.168 76.125 27.7578 77.4531 33.7344 77.4531C38.8906 77.4531 42.7578 76.418 45.3359 74.3477C47.9531 72.2383 49.2617 69.4648 49.2617 66.0273ZM103.637 89.1719C94.6133 89.1719 87.2891 86.3398 81.6641 80.6758C76.0781 74.9727 73.2852 67.3945 73.2852 57.9414V56.1836C73.2852 49.8555 74.4961 44.2109 76.918 39.25C79.3789 34.25 82.8164 30.3633 87.2305 27.5898C91.6445 24.8164 96.5664 23.4297 101.996 23.4297C110.629 23.4297 117.289 26.1836 121.977 31.6914C126.703 37.1992 129.066 44.9922 129.066 55.0703V60.8125H87.6406C88.0703 66.0469 89.8086 70.1875 92.8555 73.2344C95.9414 76.2812 99.8086 77.8047 104.457 77.8047C110.98 77.8047 116.293 75.168 120.395 69.8945L128.07 77.2188C125.531 81.0078 122.133 83.957 117.875 86.0664C113.656 88.1367 108.91 89.1719 103.637 89.1719ZM101.938 34.8555C98.0312 34.8555 94.8672 36.2227 92.4453 38.957C90.0625 41.6914 88.5391 45.5 87.875 50.3828H115.004V49.3281C114.691 44.5625 113.422 40.9688 111.195 38.5469C108.969 36.0859 105.883 34.8555 101.938 34.8555ZM173.363 37.6094C171.488 37.2969 169.555 37.1406 167.562 37.1406C161.039 37.1406 156.645 39.6406 154.379 44.6406V88H140.141V24.6016H153.734L154.086 31.6914C157.523 26.1836 162.289 23.4297 168.383 23.4297C170.414 23.4297 172.094 23.7031 173.422 24.25L173.363 37.6094ZM205.766 69.9531L219.184 24.6016H233.891L211.918 88H199.555L177.406 24.6016H192.172L205.766 69.9531ZM257.973 88H243.734V24.6016H257.973V88ZM242.855 8.13672C242.855 5.94922 243.539 4.13281 244.906 2.6875C246.312 1.24219 248.305 0.519531 250.883 0.519531C253.461 0.519531 255.453 1.24219 256.859 2.6875C258.266 4.13281 258.969 5.94922 258.969 8.13672C258.969 10.2852 258.266 12.082 256.859 13.5273C255.453 14.9336 253.461 15.6367 250.883 15.6367C248.305 15.6367 246.312 14.9336 244.906 13.5273C243.539 12.082 242.855 10.2852 242.855 8.13672ZM299.574 77.8047C303.129 77.8047 306.078 76.7695 308.422 74.6992C310.766 72.6289 312.016 70.0703 312.172 67.0234H325.59C325.434 70.9688 324.203 74.6602 321.898 78.0977C319.594 81.4961 316.469 84.1914 312.523 86.1836C308.578 88.1758 304.32 89.1719 299.75 89.1719C290.883 89.1719 283.852 86.3008 278.656 80.5586C273.461 74.8164 270.863 66.8867 270.863 56.7695V55.3047C270.863 45.6562 273.441 37.9414 278.598 32.1602C283.754 26.3398 290.785 23.4297 299.691 23.4297C307.23 23.4297 313.363 25.6367 318.09 30.0508C322.855 34.4258 325.355 40.1875 325.59 47.3359H312.172C312.016 43.7031 310.766 40.7148 308.422 38.3711C306.117 36.0273 303.168 34.8555 299.574 34.8555C294.965 34.8555 291.41 36.5352 288.91 39.8945C286.41 43.2148 285.141 48.2734 285.102 55.0703V57.3555C285.102 64.2305 286.332 69.3672 288.793 72.7656C291.293 76.125 294.887 77.8047 299.574 77.8047ZM364.262 89.1719C355.238 89.1719 347.914 86.3398 342.289 80.6758C336.703 74.9727 333.91 67.3945 333.91 57.9414V56.1836C333.91 49.8555 335.121 44.2109 337.543 39.25C340.004 34.25 343.441 30.3633 347.855 27.5898C352.27 24.8164 357.191 23.4297 362.621 23.4297C371.254 23.4297 377.914 26.1836 382.602 31.6914C387.328 37.1992 389.691 44.9922 389.691 55.0703V60.8125H348.266C348.695 66.0469 350.434 70.1875 353.48 73.2344C356.566 76.2812 360.434 77.8047 365.082 77.8047C371.605 77.8047 376.918 75.168 381.02 69.8945L388.695 77.2188C386.156 81.0078 382.758 83.957 378.5 86.0664C374.281 88.1367 369.535 89.1719 364.262 89.1719ZM362.562 34.8555C358.656 34.8555 355.492 36.2227 353.07 38.957C350.688 41.6914 349.164 45.5 348.5 50.3828H375.629V49.3281C375.316 44.5625 374.047 40.9688 371.82 38.5469C369.594 36.0859 366.508 34.8555 362.562 34.8555ZM436.332 70.7734C436.332 68.2344 435.277 66.3008 433.168 64.9727C431.098 63.6445 427.641 62.4727 422.797 61.457C417.953 60.4414 413.91 59.1523 410.668 57.5898C403.559 54.1523 400.004 49.1719 400.004 42.6484C400.004 37.1797 402.309 32.6094 406.918 28.9375C411.527 25.2656 417.387 23.4297 424.496 23.4297C432.074 23.4297 438.188 25.3047 442.836 29.0547C447.523 32.8047 449.867 37.668 449.867 43.6445H435.629C435.629 40.9102 434.613 38.6445 432.582 36.8477C430.551 35.0117 427.855 34.0938 424.496 34.0938C421.371 34.0938 418.812 34.8164 416.82 36.2617C414.867 37.707 413.891 39.6406 413.891 42.0625C413.891 44.25 414.809 45.9492 416.645 47.1602C418.48 48.3711 422.191 49.6016 427.777 50.8516C433.363 52.0625 437.738 53.5273 440.902 55.2461C444.105 56.9258 446.469 58.957 447.992 61.3398C449.555 63.7227 450.336 66.6133 450.336 70.0117C450.336 75.7148 447.973 80.3438 443.246 83.8984C438.52 87.4141 432.328 89.1719 424.672 89.1719C419.477 89.1719 414.848 88.2344 410.785 86.3594C406.723 84.4844 403.559 81.9062 401.293 78.625C399.027 75.3438 397.895 71.8086 397.895 68.0195H411.723C411.918 71.3789 413.188 73.9766 415.531 75.8125C417.875 77.6094 420.98 78.5078 424.848 78.5078C428.598 78.5078 431.449 77.8047 433.402 76.3984C435.355 74.9531 436.332 73.0781 436.332 70.7734Z" fill="#EBF3FA"/>
</g>
<defs>
<filter id="filter0_i" x="0.335938" y="0.519531" width="454" height="92.6523" filterUnits="userSpaceOnUse" color-interpolation-filters="sRGB">
<feFlood flood-opacity="0" result="BackgroundImageFix"/>
<feBlend mode="normal" in="SourceGraphic" in2="BackgroundImageFix" result="shape"/>
<feColorMatrix in="SourceAlpha" type="matrix" values="0 0 0 0 0 0 0 0 0 0 0 0 0 0 0 0 0 0 127 0" result="hardAlpha"/>
<feOffset dx="4" dy="4"/>
<feGaussianBlur stdDeviation="7.5"/>
<feComposite in2="hardAlpha" operator="arithmetic" k2="-1" k3="1"/>
<feColorMatrix type="matrix" values="0 0 0 0 0.6 0 0 0 0 0.6 0 0 0 0 0.6 0 0 0 0.41 0"/>
<feBlend mode="normal" in2="shape" result="effect1_innerShadow"/>
</filter>
</defs>
</svg>
