<svg xmlns="http://www.w3.org/2000/svg" width="38" height="36" fill="none" viewBox="0 0 38 36">
    <g filter="url(#filter0_i)">
        <path fill="#C4C4C4" d="M27.906 0c-2.062 0-3.952.69-5.619 2.053-1.597 1.307-2.66 2.97-3.287 4.18-.626-1.21-1.69-2.873-3.287-4.18C14.046.691 12.156 0 10.093 0 4.34 0 0 4.976 0 11.575c0 7.129 5.414 12.006 13.61 19.39 1.391 1.254 2.969 2.676 4.608 4.191.216.2.494.31.782.31.288 0 .566-.11.782-.31 1.64-1.516 3.217-2.937 4.61-4.192C32.586 23.581 38 18.704 38 11.574 38 4.977 33.66 0 27.906 0z"/>
        <path fill="url(#paint0_linear)" d="M27.906 0c-2.062 0-3.952.69-5.619 2.053-1.597 1.307-2.66 2.97-3.287 4.18-.626-1.21-1.69-2.873-3.287-4.18C14.046.691 12.156 0 10.093 0 4.34 0 0 4.976 0 11.575c0 7.129 5.414 12.006 13.61 19.39 1.391 1.254 2.969 2.676 4.608 4.191.216.2.494.31.782.31.288 0 .566-.11.782-.31 1.64-1.516 3.217-2.937 4.61-4.192C32.586 23.581 38 18.704 38 11.574 38 4.977 33.66 0 27.906 0z"/>
    </g>
    <defs>
        <linearGradient id="paint0_linear" x1="-4.282" x2="33.845" y1="0" y2="37.088" gradientUnits="userSpaceOnUse">
            <stop stop-color="#00C6FF"/>
            <stop offset="1" stop-color="#1A40C9"/>
        </linearGradient>
        <filter id="filter0_i" width="39" height="39.467" x="0" y="0" color-interpolation-filters="sRGB" filterUnits="userSpaceOnUse">
            <feFlood flood-opacity="0" result="BackgroundImageFix"/>
            <feBlend in="SourceGraphic" in2="BackgroundImageFix" result="shape"/>
            <feColorMatrix in="SourceAlpha" result="hardAlpha" values="0 0 0 0 0 0 0 0 0 0 0 0 0 0 0 0 0 0 127 0"/>
            <feOffset dx="1" dy="4"/>
            <feGaussianBlur stdDeviation="2"/>
            <feComposite in2="hardAlpha" k2="-1" k3="1" operator="arithmetic"/>
            <feColorMatrix values="0 0 0 0 0 0 0 0 0 0 0 0 0 0 0 0 0 0 0.21 0"/>
            <feBlend in2="shape" result="effect1_innerShadow"/>
        </filter>
    </defs>
</svg>
