<svg xmlns="http://www.w3.org/2000/svg" width="29" height="29" fill="none" viewBox="0 0 29 29">
    <g clip-path="url(#clip0)" filter="url(#filter0_ii)">
        <path fill="#fff" d="M29 5.508c-1.078.473-2.228.787-3.426.94 1.233-.737 2.174-1.893 2.616-3.287-1.15.685-2.418 1.17-3.77 1.44-1.091-1.163-2.646-1.882-4.343-1.882-3.291 0-5.941 2.671-5.941 5.947 0 .47.04.924.137 1.355-4.942-.24-9.316-2.61-12.254-6.218-.513.89-.814 1.908-.814 3.005 0 2.059 1.06 3.884 2.641 4.94-.955-.018-1.892-.295-2.686-.732v.066c0 2.889 2.06 5.288 4.763 5.841-.484.133-1.011.196-1.559.196-.38 0-.764-.022-1.125-.101.77 2.354 2.956 4.085 5.555 4.141-2.023 1.582-4.59 2.536-7.371 2.536-.488 0-.955-.022-1.423-.082 2.634 1.699 5.755 2.668 9.12 2.668 10.94 0 16.922-9.062 16.922-16.918 0-.262-.01-.516-.022-.768 1.18-.838 2.172-1.883 2.98-3.087z"/>
    </g>
    <defs>
        <clipPath id="clip0">
            <path fill="#fff" d="M0 0H29V29H0z"/>
        </clipPath>
        <filter id="filter0_ii" width="37" height="37" x="-4" y="-4" color-interpolation-filters="sRGB" filterUnits="userSpaceOnUse">
            <feFlood flood-opacity="0" result="BackgroundImageFix"/>
            <feBlend in="SourceGraphic" in2="BackgroundImageFix" result="shape"/>
            <feColorMatrix in="SourceAlpha" result="hardAlpha" values="0 0 0 0 0 0 0 0 0 0 0 0 0 0 0 0 0 0 127 0"/>
            <feOffset dx="-4" dy="-4"/>
            <feGaussianBlur stdDeviation="5"/>
            <feComposite in2="hardAlpha" k2="-1" k3="1" operator="arithmetic"/>
            <feColorMatrix values="0 0 0 0 0 0 0 0 0 0 0 0 0 0 0 0 0 0 0.08 0"/>
            <feBlend in2="shape" result="effect1_innerShadow"/>
            <feColorMatrix in="SourceAlpha" result="hardAlpha" values="0 0 0 0 0 0 0 0 0 0 0 0 0 0 0 0 0 0 127 0"/>
            <feOffset dx="4" dy="4"/>
            <feGaussianBlur stdDeviation="5"/>
            <feComposite in2="hardAlpha" k2="-1" k3="1" operator="arithmetic"/>
            <feColorMatrix values="0 0 0 0 0 0 0 0 0 0 0 0 0 0 0 0 0 0 0.17 0"/>
            <feBlend in2="effect1_innerShadow" result="effect2_innerShadow"/>
        </filter>
    </defs>
</svg>
