<svg xmlns="http://www.w3.org/2000/svg" width="52" height="52" fill="none" viewBox="0 0 52 52">
    <path fill="#000" fill-opacity=".58" d="M51.188 26.813c0-5.435-3.834-9.986-8.938-11.106V4.875c0-2.24-1.822-4.063-4.063-4.063H17.064C14.822.813 13 2.635 13 4.875v8.938H8.303l-.49 1.962-1.734-1.04-4.345 4.343 1.04 1.735-1.962.49v6.144l1.964.49-1.042 1.735 4.344 4.344 1.734-1.04.49 1.962H13v12.187c0 2.24 1.822 4.063 4.063 4.063h21.125c2.24 0 4.062-1.823 4.062-4.063v-9.207c5.104-1.12 8.938-5.67 8.938-11.105zm-1.626 0c0 1.583-.387 3.075-1.06 4.398-.45-1.24-1.488-2.216-2.829-2.552l-3.423-.856v-.194c1.012-.763 1.625-1.963 1.625-3.233V22.75c0-1.135-.48-2.227-1.318-2.996-.837-.766-1.971-1.151-3.105-1.051-2.076.18-3.702 2.032-3.702 4.214v1.457c0 1.27.613 2.47 1.625 3.233v.194l-3.423.857c-1.34.335-2.378 1.31-2.83 2.552-.672-1.323-1.06-2.815-1.06-4.398 0-5.377 4.374-9.75 9.75-9.75 5.377 0 9.75 4.373 9.75 9.75zM37.376 15.707c-.559.123-1.1.292-1.625.493v-2.387H19.5v11.374h9.067c-.077.533-.13 1.072-.13 1.625 0 5.435 3.834 9.986 8.938 11.106v1.895h-19.5V12.186h19.5v3.52zm-8.458 7.855h-7.792v-8.125h13v1.54c-2.481 1.44-4.371 3.785-5.208 6.585zM17.062 2.438h21.125c1.344 0 2.438 1.094 2.438 2.438v2.438h-26V4.874c0-1.344 1.094-2.438 2.438-2.438zM13 28.09c-.513.226-1.066.348-1.625.348-2.24 0-4.063-1.823-4.063-4.063 0-2.24 1.823-4.063 4.063-4.063.559 0 1.112.122 1.625.348v7.43zm-3.428 5.223l-.396-1.584-.165-.435-.927-.377L6.33 31.97l-2.55-2.55 1.054-1.754-.407-.992-1.99-.496v-3.606l1.988-.496.409-.992L3.78 19.33l2.55-2.55 1.753 1.053.99-.403.498-1.992H13v3.497c-.527-.158-1.073-.247-1.625-.247-3.136 0-5.688 2.552-5.688 5.687 0 3.135 2.552 5.688 5.688 5.688.552 0 1.098-.09 1.625-.248v3.497H9.572zm28.616 16.25H17.061c-1.343 0-2.437-1.094-2.437-2.438v-2.438h26v2.438c0 1.344-1.094 2.438-2.438 2.438zm2.437-6.5h-26V8.937h26v6.542c-.27-.02-.538-.041-.813-.041-.274 0-.542.021-.812.04v-4.915H16.25v30.874H39v-3.29c.27.019.538.04.813.04.274 0 .542-.021.812-.04v4.916zm-.813-6.5c-2.912 0-5.524-1.292-7.312-3.323v-.64c0-1.12.76-2.093 1.846-2.365L39 29.072v-2.365l-.404-.235c-.764-.445-1.221-1.23-1.221-2.097v-1.457c0-1.348.974-2.488 2.217-2.596.697-.056 1.358.164 1.867.63.503.461.791 1.116.791 1.798v1.625c0 .868-.457 1.652-1.221 2.097l-.404.235v2.365l4.654 1.163c1.086.272 1.846 1.245 1.846 2.365v.64c-1.788 2.031-4.4 3.322-7.313 3.322z"/>
    <path fill="#000" fill-opacity=".58" d="M30.875 4.063H32.5v1.625h-1.625V4.063zM22.75 4.063h6.5v1.625h-6.5V4.063zM24.375 46.313h6.5v1.624h-6.5v-1.624zM35.75 46.313h1.625v1.624H35.75v-1.624zM17.875 46.313H19.5v1.624h-1.625v-1.624zM19.5 26.813h7.313v1.625H19.5v-1.625zM19.5 30.063h7.313v1.625H19.5v-1.625zM19.5 33.313h7.313v1.624H19.5v-1.624zM19.5 36.563h7.313v1.624H19.5v-1.624zM46.313 15.438c1.343 0 2.437-1.094 2.437-2.438 0-1.058-.682-1.952-1.625-2.288v-6.65H45.5v6.65c-.943.336-1.625 1.23-1.625 2.288 0 1.344 1.094 2.438 2.438 2.438zm0-3.25c.447 0 .812.364.812.812 0 .448-.365.813-.813.813-.447 0-.812-.365-.812-.813 0-.448.365-.813.813-.813zM45.5.813h1.625v1.625H45.5V.812zM8.938 36.563C7.593 36.563 6.5 37.656 6.5 39c0 1.058.682 1.952 1.625 2.288v6.65H9.75v-6.65c.943-.336 1.625-1.23 1.625-2.288 0-1.344-1.094-2.438-2.438-2.438zm0 3.25c-.448 0-.813-.364-.813-.813 0-.449.365-.813.813-.813.447 0 .812.364.812.813 0 .449-.365.813-.813.813zM8.125 49.563H9.75v1.624H8.125v-1.624z"/>
</svg>
